<svg width="18" height="8" viewBox="0 0 18 8" fill="none" xmlns="http://www.w3.org/2000/svg">
<g id="Icon" opacity="0.5">
<path id="Icon_2" d="M14.597 1.80821C14.0816 1.56506 13.1507 1.55008 12.5302 1.81839L6.45523 4.44523C6.29813 4.51316 6.29813 4.5997 6.45523 4.66763C6.61234 4.73556 6.81246 4.73556 6.96957 4.66763L11.9946 2.49481C12.2875 2.36817 12.7623 2.36817 13.0552 2.49481C13.3481 2.62146 13.3481 2.8268 13.0552 2.95344L8.03023 5.12626C7.28734 5.44749 6.13747 5.44749 5.39457 5.12626C4.65168 4.80503 4.65168 4.30783 5.39457 3.9866L11.4696 1.35976C12.6452 0.851407 14.5557 0.834865 15.6917 1.36472C16.8559 1.87336 16.8901 2.69545 15.6696 3.18507L8.55523 6.26131C6.91234 6.9717 4.33747 6.9717 2.69457 6.26131C1.05168 5.55092 1.05168 4.43755 2.69457 3.72716L8.76957 1.10032C9.06246 0.973671 9.53734 0.973671 9.83023 1.10032C10.1231 1.22697 10.1231 1.4323 9.83023 1.55895L3.75523 4.18579C2.69813 4.64288 2.69813 5.34559 3.75523 5.80268C4.81234 6.25978 6.43746 6.25978 7.49457 5.80268L14.6196 2.72182C14.6273 2.7185 14.6351 2.71525 14.6431 2.71208C15.2054 2.48919 15.2401 2.0867 14.6196 1.81839C14.6119 1.81507 14.6044 1.81168 14.597 1.80821Z" fill="#695C5C"/>
</g>
</svg>
