<svg width="20" height="22" viewBox="0 0 20 22" fill="none" xmlns="http://www.w3.org/2000/svg">
<path id="Vector" d="M4 18H9V22L6.5 20.5L4 22V18ZM18 0H10V22L12.5 20.5L15 22V20H18C18.5304 20 19.0391 19.7893 19.4142 19.4142C19.7893 19.0391 20 18.5304 20 18V2C20 1.46957 19.7893 0.960859 19.4142 0.585786C19.0391 0.210714 18.5304 0 18 0ZM12 4H14V6H12V4ZM12 9H14V11H12V9ZM12 14H14V16H12V14ZM2 0C1.47005 0.00158273 0.962265 0.212805 0.587535 0.587535C0.212805 0.962265 0.00158273 1.47005 0 2V18C0.00158273 18.5299 0.212805 19.0377 0.587535 19.4125C0.962265 19.7872 1.47005 19.9984 2 20V2H9V0H2Z" fill="#695C5C"/>
</svg>
