<svg width="26" height="12" viewBox="0 0 26 12" fill="none" xmlns="http://www.w3.org/2000/svg">
<g id="GooglePay">
<g id="Pay">
<path id="Union" fill-rule="evenodd" clip-rule="evenodd" d="M12.0024 9.20786V6.10059H13.6061C14.2633 6.10059 14.818 5.88039 15.2701 5.44611L15.3787 5.33601C16.2046 4.43686 16.1504 3.03614 15.2701 2.20427C14.83 1.76387 14.2271 1.52532 13.6061 1.53756H11.0317V9.20786H12.0024ZM12.0025 5.15864V2.47954H13.6306C13.9804 2.47954 14.312 2.6141 14.5592 2.85877C15.0839 3.37257 15.0959 4.2289 14.5894 4.76105C14.3422 5.02407 13.9924 5.17087 13.6306 5.15864H12.0025ZM19.9065 4.36959C19.4905 3.98424 18.9238 3.7885 18.2063 3.7885C17.2839 3.7885 16.5905 4.13104 16.1323 4.80999L16.9885 5.35437C17.302 4.8895 17.73 4.65707 18.2726 4.65707C18.6163 4.65707 18.9479 4.78552 19.2071 5.01795C19.4604 5.23815 19.6051 5.55622 19.6051 5.89264V6.11895C19.2313 5.91099 18.761 5.80089 18.1822 5.80089C17.507 5.80089 16.9643 5.95992 16.5604 6.2841C16.1565 6.60829 15.9515 7.03645 15.9515 7.58084C15.9394 8.07629 16.1504 8.54727 16.5242 8.86534C16.9041 9.20787 17.3864 9.37914 17.9531 9.37914C18.6223 9.37914 19.1529 9.07942 19.5568 8.47999H19.599V9.20787H20.5275V5.97215C20.5275 5.2932 20.3225 4.75494 19.9065 4.36959ZM17.272 8.24141C17.073 8.09461 16.9524 7.85606 16.9524 7.59916C16.9524 7.31168 17.0851 7.07313 17.3444 6.88351C17.6097 6.69389 17.9413 6.59603 18.3333 6.59603C18.876 6.58991 19.2981 6.71224 19.5996 6.95691C19.5996 7.37284 19.4368 7.73373 19.1172 8.03956C18.8277 8.33316 18.4358 8.49831 18.0257 8.49831C17.7544 8.50443 17.4891 8.41268 17.272 8.24141ZM22.6135 11.5139L25.8572 3.95978H24.8021L23.3009 7.72765H23.2828L21.7454 3.95978H20.6903L22.8185 8.87147L21.6127 11.5139H22.6135Z" fill="#3C4043"/>
</g>
<g id="G">
<path id="Blue" d="M8.65141 5.42819C8.65141 5.12847 8.6273 4.82876 8.57906 4.53516H4.48535V6.22947H6.83064C6.73418 6.77386 6.42067 7.26319 5.96246 7.56902V8.67002H7.3612C8.18115 7.90544 8.65141 6.77386 8.65141 5.42819Z" fill="#4285F4"/>
<path id="Green" d="M4.48555 9.73373C5.65519 9.73373 6.64395 9.34226 7.3614 8.66943L5.96267 7.56843C5.57078 7.83756 5.07037 7.99048 4.48555 7.99048C3.3521 7.99048 2.39348 7.21366 2.04983 6.17383H0.608887V7.31153C1.34443 8.79788 2.84566 9.73373 4.48555 9.73373Z" fill="#34A853"/>
<path id="Yellow" d="M2.05005 6.17428C1.86915 5.62989 1.86915 5.03658 2.05005 4.48608V3.35449H0.608883C-0.0122059 4.59618 -0.0122059 6.06418 0.608883 7.30586L2.05005 6.17428Z" fill="#FBBC04"/>
<path id="Red" d="M4.48555 2.6693C5.10654 2.65706 5.70342 2.89562 6.14957 3.3299L7.39155 2.06986C6.60174 1.32363 5.56475 0.913814 4.48555 0.926047C2.84566 0.926047 1.34443 1.86801 0.608887 3.35437L2.04983 4.49207C2.39348 3.44612 3.3521 2.6693 4.48555 2.6693Z" fill="#EA4335"/>
</g>
</g>
</svg>
