<svg width="22" height="19" viewBox="0 0 22 19" fill="none" xmlns="http://www.w3.org/2000/svg">
<g id="PayPal">
<path id="Vector" fill-rule="evenodd" clip-rule="evenodd" d="M3.18293 12.6768H1.58287C1.47338 12.6768 1.38026 12.7563 1.36318 12.8644L0.716034 16.9674C0.703171 17.0484 0.765872 17.1214 0.847995 17.1214H1.61188C1.72137 17.1214 1.8145 17.0418 1.83157 16.9335L2.00612 15.8269C2.02295 15.7185 2.1163 15.6391 2.22557 15.6391H2.73209C3.78611 15.6391 4.39438 15.129 4.55332 14.1183C4.62489 13.6761 4.55635 13.3287 4.34923 13.0853C4.12186 12.8182 3.71844 12.6768 3.18293 12.6768ZM3.36753 14.1753C3.28005 14.7495 2.84136 14.7495 2.41719 14.7495H2.17573L2.34512 13.6772C2.35518 13.6124 2.41133 13.5647 2.47684 13.5647H2.58751C2.87645 13.5647 3.14905 13.5647 3.28991 13.7294C3.37382 13.8277 3.39958 13.9736 3.36753 14.1753ZM7.96591 14.1569H7.19968C7.13439 14.1569 7.07798 14.2047 7.06791 14.2695L7.03402 14.4838L6.98043 14.4062C6.81456 14.1654 6.4447 14.0849 6.0755 14.0849C5.22871 14.0849 4.50557 14.7262 4.36471 15.6258C4.29152 16.0745 4.39557 16.5036 4.65011 16.8029C4.88365 17.078 5.21778 17.1926 5.61524 17.1926C6.29746 17.1926 6.67586 16.7539 6.67586 16.7539L6.64165 16.9669C6.62876 17.0483 6.69145 17.1213 6.77309 17.1213H7.46332C7.5731 17.1213 7.66568 17.0417 7.683 16.9334L8.09714 14.3109C8.11024 14.2302 8.04776 14.1569 7.96591 14.1569ZM6.89782 15.6483C6.82387 16.086 6.47643 16.3798 6.03338 16.3798C5.81089 16.3798 5.633 16.3085 5.51888 16.1733C5.40563 16.039 5.36254 15.8478 5.39859 15.6349C5.46767 15.2009 5.82096 14.8975 6.25729 14.8975C6.4748 14.8975 6.65172 14.9697 6.76822 15.1061C6.88493 15.244 6.93127 15.4363 6.89782 15.6483ZM11.2767 14.1568H12.0468C12.1546 14.1568 12.2175 14.2778 12.1562 14.3662L9.59528 18.0628C9.55381 18.1227 9.48549 18.1583 9.41252 18.1583H8.64347C8.5352 18.1583 8.47197 18.0364 8.53466 17.9477L9.33207 16.8221L8.48399 14.3332C8.45465 14.2467 8.51853 14.1568 8.61056 14.1568H9.36715C9.46546 14.1568 9.55219 14.2214 9.58056 14.3154L10.0306 15.8187L11.0927 14.2544C11.1342 14.1933 11.2033 14.1568 11.2767 14.1568Z" fill="#253B80"/>
<path id="Vector_2" fill-rule="evenodd" clip-rule="evenodd" d="M19.6252 16.9667L20.2818 12.7886C20.2919 12.7237 20.3481 12.676 20.4134 12.6758H21.1526C21.2343 12.6758 21.297 12.749 21.2841 12.83L20.6365 16.9328C20.6196 17.041 20.5265 17.1206 20.4168 17.1206H19.7566C19.675 17.1206 19.6123 17.0477 19.6252 16.9667ZM14.5961 12.676H12.9957C12.8865 12.676 12.7934 12.7556 12.7763 12.8636L12.1291 16.9667C12.1162 17.0477 12.1789 17.1206 12.2607 17.1206H13.0818C13.1581 17.1206 13.2234 17.065 13.2353 16.9892L13.419 15.8261C13.4358 15.7178 13.5292 15.6383 13.6384 15.6383H14.1447C15.1989 15.6383 15.8071 15.1282 15.9661 14.1175C16.0379 13.6753 15.969 13.3279 15.7619 13.0845C15.5347 12.8174 15.1316 12.676 14.5961 12.676ZM14.7807 14.1746C14.6934 14.7487 14.2547 14.7487 13.8303 14.7487H13.589L13.7587 13.6764C13.7688 13.6117 13.8244 13.5639 13.8902 13.5639H14.0008C14.2896 13.5639 14.5624 13.5639 14.7032 13.7286C14.7872 13.8269 14.8127 13.9729 14.7807 14.1746ZM19.3786 14.1562H18.6129C18.5471 14.1562 18.4912 14.2039 18.4814 14.2688L18.4475 14.483L18.3937 14.4054C18.2278 14.1646 17.8582 14.0842 17.489 14.0842C16.6422 14.0842 15.9193 14.7255 15.7784 15.6251C15.7054 16.0738 15.809 16.5028 16.0636 16.8021C16.2976 17.0772 16.6312 17.1919 17.0287 17.1919C17.7109 17.1919 18.0892 16.7532 18.0892 16.7532L18.0551 16.9661C18.0422 17.0475 18.1049 17.1205 18.1871 17.1205H18.877C18.9862 17.1205 19.0794 17.0409 19.0965 16.9327L19.5108 14.3101C19.5235 14.2295 19.4608 14.1562 19.3786 14.1562ZM18.3106 15.6475C18.2371 16.0852 17.8892 16.3791 17.4461 16.3791C17.224 16.3791 17.0458 16.3077 16.9316 16.1725C16.8183 16.0382 16.7758 15.847 16.8114 15.6342C16.8808 15.2001 17.2337 14.8967 17.67 14.8967C17.8876 14.8967 18.0644 14.969 18.181 15.1054C18.2982 15.2432 18.3445 15.4355 18.3106 15.6475Z" fill="#179BD7"/>
<path id="Vector_3" d="M9.10429 11.2083L9.30102 9.95885L8.86284 9.94867H6.77051L8.22459 0.72873C8.22903 0.700894 8.24375 0.674941 8.26519 0.656513C8.28663 0.638086 8.31413 0.62793 8.34271 0.62793H11.8707C13.042 0.62793 13.8502 0.871658 14.2723 1.35272C14.4701 1.5784 14.5961 1.81422 14.6571 2.07375C14.721 2.34607 14.7221 2.67141 14.6597 3.06823L14.6551 3.09719V3.35144L14.853 3.46354C15.0197 3.55192 15.152 3.6531 15.2535 3.76895C15.4229 3.96189 15.5323 4.20713 15.5786 4.49787C15.6263 4.79689 15.6105 5.1527 15.5323 5.55553C15.442 6.01892 15.2961 6.4225 15.099 6.75274C14.9177 7.05703 14.6867 7.30935 14.4126 7.505C14.1508 7.69079 13.8397 7.83187 13.4881 7.92216C13.1472 8.01084 12.7588 8.05566 12.3326 8.05566H12.058C11.8617 8.05566 11.671 8.12636 11.5213 8.25315C11.3713 8.38253 11.2719 8.55923 11.2414 8.7526L11.2208 8.8651L10.8732 11.0672L10.8574 11.1481C10.8533 11.1738 10.8462 11.1865 10.8356 11.1952C10.8262 11.203 10.8127 11.2083 10.7995 11.2083H9.10429Z" fill="#253B80"/>
<path id="Vector_4" d="M15.0406 3.12695C15.0301 3.19428 15.018 3.2631 15.0045 3.33382C14.5392 5.72259 12.9475 6.54781 10.9145 6.54781H9.87939C9.6308 6.54781 9.42129 6.72834 9.38253 6.97357L8.85255 10.3347L8.70248 11.2873C8.67726 11.4483 8.80144 11.5935 8.96385 11.5935H10.7998C11.0172 11.5935 11.2018 11.4356 11.236 11.2212L11.2541 11.1278L11.5998 8.93428L11.622 8.81399C11.6558 8.59886 11.8408 8.44089 12.0582 8.44089H12.3328C14.1115 8.44089 15.504 7.71872 15.9109 5.62893C16.0809 4.75594 15.9929 4.02702 15.543 3.51436C15.4069 3.35977 15.238 3.23151 15.0406 3.12695Z" fill="#179BD7"/>
<path id="Vector_5" d="M14.5537 2.93262C14.4826 2.91193 14.4092 2.89312 14.334 2.8762C14.2584 2.85966 14.1809 2.84499 14.1012 2.8322C13.8221 2.78706 13.5163 2.76562 13.1887 2.76562H10.4235C10.3554 2.76562 10.2907 2.78104 10.2328 2.80888C10.1052 2.87018 10.0105 2.99093 9.98756 3.13874L9.39921 6.86463L9.38232 6.97333C9.42109 6.72809 9.63059 6.54755 9.87918 6.54755H10.9142C12.9473 6.54755 14.5391 5.72196 15.0043 3.33357C15.0182 3.26286 15.0298 3.19403 15.0403 3.12671C14.9227 3.06427 14.7951 3.01086 14.6578 2.96534C14.624 2.95406 14.5891 2.94316 14.5537 2.93262Z" fill="#222D65"/>
<path id="Vector_6" d="M9.98759 3.13895C10.0105 2.99112 10.1054 2.87039 10.2328 2.80946C10.2912 2.78162 10.3555 2.7662 10.4235 2.7662H13.1888C13.5165 2.7662 13.8222 2.78764 14.1012 2.83278C14.181 2.84556 14.2586 2.86024 14.3341 2.87678C14.4094 2.89371 14.4827 2.91252 14.5538 2.9332C14.5891 2.94373 14.6241 2.95464 14.6583 2.96555C14.7956 3.01106 14.9231 3.06485 15.0408 3.12691C15.1793 2.24414 15.0397 1.6431 14.5625 1.09884C14.0363 0.499679 13.0865 0.243164 11.8713 0.243164H8.34318C8.09491 0.243164 7.88324 0.423695 7.8448 0.669308L6.37535 9.98403C6.34634 10.1683 6.4885 10.3346 6.67429 10.3346H8.85248L9.39936 6.86483L9.98759 3.13895Z" fill="#253B80"/>
</g>
</svg>
