<svg width="24" height="24" viewBox="0 0 24 24" fill="none" xmlns="http://www.w3.org/2000/svg">
<g id="simple-icons:applepay">
<path id="Vector" d="M2.15 4.31759C1.99866 4.31778 1.84733 4.31878 1.696 4.32059C1.546 4.32559 1.393 4.33359 1.244 4.36059C1.01882 4.39618 0.805306 4.48472 0.621024 4.61893C0.436743 4.75314 0.286961 4.92919 0.184 5.13259C0.114 5.27059 0.07 5.41059 0.044 5.56259C0.016 5.71059 0.007 5.86259 0.004 6.01259C0.00195281 6.08224 0.000619407 6.15191 0 6.22159L0 17.7786C0 17.8486 0.002 17.9166 0.003 17.9856C0.007 18.1356 0.016 18.2886 0.043 18.4376C0.07 18.5876 0.115 18.7286 0.185 18.8666C0.322895 19.1381 0.543517 19.3587 0.815 19.4966C0.953 19.5666 1.093 19.6116 1.245 19.6386C1.393 19.6656 1.545 19.6746 1.695 19.6786L1.903 19.6816H22.097L22.304 19.6786C22.454 19.6746 22.607 19.6656 22.756 19.6386C22.906 19.6116 23.047 19.5676 23.184 19.4976C23.4562 19.3598 23.6772 19.1388 23.815 18.8666C23.885 18.7286 23.93 18.5886 23.956 18.4366C23.983 18.2886 23.992 18.1366 23.996 17.9866C23.998 17.9166 23.999 17.8486 23.999 17.7786L24 17.5326V6.22059C24 6.15059 23.998 6.08259 23.996 6.01359C23.9941 5.86213 23.9807 5.71103 23.956 5.56159C23.9082 5.26045 23.7663 4.98214 23.5508 4.76644C23.3353 4.55074 23.0571 4.40869 22.756 4.36059C22.6065 4.33595 22.4555 4.32258 22.304 4.32059C22.153 4.31632 22.002 4.31532 21.851 4.31759H2.15ZM2.15 4.82959H22.092C22.158 4.82959 22.223 4.83159 22.289 4.83259C22.404 4.83659 22.539 4.84259 22.664 4.86459C22.773 4.88459 22.864 4.91459 22.951 4.95859C23.1264 5.04764 23.269 5.19018 23.358 5.36559C23.4038 5.45624 23.4355 5.55336 23.452 5.65359C23.474 5.77659 23.48 5.91159 23.483 6.02759C23.485 6.09259 23.486 6.15759 23.486 6.22459V17.7766C23.486 17.8416 23.486 17.9066 23.483 17.9726C23.48 18.0876 23.474 18.2226 23.451 18.3476C23.4294 18.4947 23.3726 18.6345 23.2856 18.7551C23.1986 18.8758 23.0838 18.9737 22.951 19.0406C22.8609 19.0861 22.7645 19.1178 22.665 19.1346C22.5416 19.1542 22.4169 19.1649 22.292 19.1666L22.092 19.1696H1.906C1.84 19.1696 1.773 19.1676 1.71 19.1666C1.58439 19.165 1.45907 19.1543 1.335 19.1346C1.226 19.1146 1.135 19.0846 1.047 19.0406C0.871582 18.9519 0.729268 18.8092 0.641 18.6336C0.595308 18.5429 0.563616 18.4458 0.547 18.3456C0.52714 18.2222 0.516444 18.0975 0.515 17.9726C0.513659 17.9069 0.512992 17.8413 0.513 17.7756V6.22359C0.513 6.15859 0.513 6.09259 0.515 6.02659C0.519 5.91259 0.525 5.77859 0.547 5.65159C0.567 5.54359 0.597 5.45259 0.641 5.36459C0.730102 5.18946 0.872655 5.04726 1.048 4.95859C1.13853 4.91333 1.23523 4.88165 1.335 4.86459C1.46 4.84259 1.595 4.83559 1.71 4.83259C1.775 4.83059 1.841 4.83059 1.906 4.82959H2.15ZM6.86 8.52959C6.56 8.54559 6.192 8.72859 5.98 8.98559C5.789 9.20559 5.62 9.56559 5.664 9.90359C6.002 9.93359 6.339 9.73459 6.552 9.48559C6.757 9.22759 6.897 8.88259 6.86 8.53059V8.52959ZM9.067 8.94959V14.4426H9.919V12.5656H11.099C12.177 12.5656 12.934 11.8266 12.934 10.7536C12.934 9.68359 12.192 8.94859 11.126 8.94859L9.067 8.94959ZM9.919 9.66859H10.901C11.64 9.66859 12.062 10.0646 12.062 10.7576C12.062 11.4496 11.64 11.8496 10.898 11.8496H9.919V9.66859ZM6.765 9.96859C6.315 9.97859 5.935 10.2486 5.715 10.2486C5.48 10.2486 5.122 9.98459 4.734 9.99159C4.48161 9.99789 4.23527 10.0702 4.01947 10.2012C3.80368 10.3323 3.62597 10.5175 3.504 10.7386C2.977 11.6466 3.365 12.9936 3.878 13.7336C4.127 14.0996 4.427 14.5026 4.822 14.4876C5.195 14.4736 5.342 14.2456 5.795 14.2456C6.249 14.2456 6.381 14.4876 6.775 14.4806C7.185 14.4736 7.442 14.1146 7.69 13.7476C7.976 13.3306 8.093 12.9276 8.1 12.9066C8.093 12.8986 7.31 12.5986 7.303 11.6976C7.295 10.9436 7.918 10.5846 7.947 10.5626C7.595 10.0426 7.047 9.98459 6.857 9.96959C6.82637 9.96767 6.79568 9.968 6.765 9.96859ZM14.969 10.3656C13.979 10.3656 13.363 10.8986 13.317 11.6216H14.094C14.166 11.2636 14.463 11.0356 14.939 11.0356C15.441 11.0356 15.742 11.3016 15.742 11.7466V12.0556L14.645 12.1196C13.694 12.1736 13.157 12.6036 13.157 13.3036C13.157 14.0236 13.705 14.5106 14.489 14.5106C15.015 14.5106 15.521 14.2296 15.753 13.7836H15.772V14.4426H16.56V11.6826C16.56 10.8796 15.94 10.3656 14.969 10.3656ZM16.909 10.4376L18.355 14.4466C18.355 14.4496 18.282 14.6866 18.282 14.6936C18.157 15.1036 17.952 15.2646 17.571 15.2646C17.502 15.2646 17.365 15.2646 17.304 15.2496V15.9156C17.364 15.9266 17.571 15.9346 17.639 15.9346C18.469 15.9346 18.865 15.6226 19.207 14.6516L20.707 10.4376H19.839L18.827 13.6966H18.812L17.799 10.4366L16.909 10.4376ZM15.742 12.6266V12.9426C15.742 13.4636 15.292 13.8596 14.718 13.8596C14.276 13.8596 13.987 13.6316 13.987 13.2806C13.987 12.9386 14.265 12.7206 14.756 12.6876L15.742 12.6266Z" fill="black"/>
</g>
</svg>
