<svg width="34" height="24" viewBox="0 0 34 24" fill="none" xmlns="http://www.w3.org/2000/svg">
<g id="uit:calender">
<path id="Vector" d="M27.6252 4H23.3752V2.5C23.3752 2.36739 23.3005 2.24021 23.1677 2.14645C23.0349 2.05268 22.8547 2 22.6668 2C22.479 2 22.2988 2.05268 22.166 2.14645C22.0331 2.24021 21.9585 2.36739 21.9585 2.5V4H12.0418V2.5C12.0418 2.36739 11.9672 2.24021 11.8344 2.14645C11.7015 2.05268 11.5214 2 11.3335 2C11.1456 2 10.9655 2.05268 10.8326 2.14645C10.6998 2.24021 10.6252 2.36739 10.6252 2.5V4H6.37516C5.4362 4.00079 4.53602 4.26444 3.87207 4.73311C3.20812 5.20178 2.83462 5.8372 2.8335 6.5V19.5C2.83462 20.1628 3.20812 20.7982 3.87207 21.2669C4.53602 21.7356 5.4362 21.9992 6.37516 22H27.6252C28.5642 21.9995 29.4646 21.7359 30.1287 21.2672C30.7927 20.7985 31.1661 20.1629 31.1668 19.5V6.5C31.1661 5.83712 30.7927 5.20154 30.1287 4.73282C29.4646 4.26409 28.5642 4.00053 27.6252 4ZM29.7502 19.5C29.7502 19.8978 29.5263 20.2794 29.1278 20.5607C28.7292 20.842 28.1887 21 27.6252 21H6.37516C5.81158 21 5.27108 20.842 4.87256 20.5607C4.47405 20.2794 4.25016 19.8978 4.25016 19.5V11H29.7502V19.5ZM29.7502 10H4.25016V6.5C4.25016 5.672 5.19933 5 6.37516 5H10.6252V6.5C10.6252 6.63261 10.6998 6.75979 10.8326 6.85355C10.9655 6.94732 11.1456 7 11.3335 7C11.5214 7 11.7015 6.94732 11.8344 6.85355C11.9672 6.75979 12.0418 6.63261 12.0418 6.5V5H21.9585V6.5C21.9585 6.63261 22.0331 6.75979 22.166 6.85355C22.2988 6.94732 22.479 7 22.6668 7C22.8547 7 23.0349 6.94732 23.1677 6.85355C23.3005 6.75979 23.3752 6.63261 23.3752 6.5V5H27.6252C28.1887 5 28.7292 5.15804 29.1278 5.43934C29.5263 5.72064 29.7502 6.10218 29.7502 6.5V10Z" fill="#695C5C"/>
</g>
</svg>
