<svg width="42" height="36" viewBox="0 0 42 36" fill="none" xmlns="http://www.w3.org/2000/svg">
<path id="Vector" d="M2 33C1.44772 33 1 33.4477 1 34C1 34.5523 1.44772 35 2 35H40C40.5523 35 41 34.5523 41 34C41 33.4477 40.5523 33 40 33H2ZM2 17C1.44772 17 1 17.4477 1 18C1 18.5523 1.44772 19 2 19H40C40.5523 19 41 18.5523 41 18C41 17.4477 40.5523 17 40 17H2ZM2 1C1.44772 1 1 1.44772 1 2C1 2.55228 1.44772 3 2 3H40C40.5523 3 41 2.55228 41 2C41 1.44772 40.5523 1 40 1H2Z" stroke="#695C5C" stroke-width="2" stroke-linecap="round" stroke-linejoin="round"/>
</svg>
